<svg xmlns="http://www.w3.org/2000/svg" version="1.0" width="1203.000000" height="1320.000000" preserveAspectRatio="xMidYMid meet"><rect id="backgroundrect" width="100%" height="100%" x="0" y="0" fill="none" stroke="none"/>
<metadata>
Created by potrace 1.16, written by Peter Selinger 2001-2019
</metadata>

<g class="currentLayer" style=""><title>Layer 1</title><g transform="translate(0,1320) scale(0.10000000149011612,-0.10000000149011612) " fill="#ffffff" stroke="none" id="svg_1" class="selected" fill-opacity="1">
<path d="M5750 13114 c-467 -59 -857 -216 -1155 -466 -328 -275 -607 -691 -761 -1131 -147 -423 -167 -805 -64 -1225 108 -439 316 -804 636 -1113 418 -403 970 -619 1584 -619 372 0 697 73 1015 229 456 224 822 586 1049 1040 364 727 315 1556 -133 2227 -373 559 -937 928 -1591 1040 -92 15 -497 28 -580 18z" id="svg_2" fill="#ffffff" fill-opacity="1"/>
<path d="M359 10710 c-41 -24 -79 -174 -99 -385 -26 -273 -32 -619 -36 -2015 l-5 -1485 917 -725 c1464 -1157 1818 -1440 2279 -1824 345 -287 545 -468 545 -492 0 -7 -11 -15 -24 -18 -52 -13 -274 -25 -581 -32 -323 -6 -642 -1 -2258 39 -478 12 -871 20 -873 18 -2 -2 -4 -811 -4 -1798 l0 -1793 5770 0 5770 0 0 1780 0 1780 -22 4 c-13 2 -810 23 -1773 46 -962 22 -1793 44 -1846 48 l-96 7 1870 1480 1869 1479 -5 1556 c-5 1486 -9 1729 -37 2000 -20 196 -55 318 -95 334 -29 11 -39 4 -665 -483 -998 -776 -1674 -1313 -3538 -2808 -777 -624 -1419 -1136 -1425 -1139 -11 -3 -1357 1067 -3623 2881 -1116 894 -1900 1511 -1961 1543 -26 14 -33 14 -54 2z" id="svg_3" fill="#ffffff" fill-opacity="1"/>
</g></g></svg>